<?xml version="1.0" encoding="utf-8"?>
<!-- Generator: Adobe Illustrator 26.5.3, SVG Export Plug-In . SVG Version: 6.00 Build 0)  -->
<svg version="1.1" id="Layer_1" xmlns="http://www.w3.org/2000/svg" xmlns:xlink="http://www.w3.org/1999/xlink" x="0px" y="0px"
	 viewBox="0 0 166.1 128.9" style="enable-background:new 0 0 166.1 128.9;" xml:space="preserve">
<style type="text/css">
	.st0{fill:#5E0000;}
</style>
<path class="st0" d="M92.9,72.8c-0.3,1.6-1.1,3.1-2.1,4.3c-1,1.3-2.3,2.3-3.7,3.1c-1.4,0.8-2.9,1.4-4.5,1.7c-1.6,0.3-3.2,0.3-4.9,0
	l-0.3-0.1c-0.1,0-0.2-0.1-0.3-0.1l-0.6-0.2l-0.3-0.1c-0.1,0-0.1,0-0.2,0L76,81.4l-0.6-0.2c-0.2-0.1-0.4-0.2-0.6-0.2l-1.1-0.6
	c-0.2-0.1-0.3-0.2-0.5-0.3c-1.4-0.9-2.6-2.1-3.5-3.4c-1-1.3-1.8-2.8-2.3-4.4c-0.5-1.6-0.8-3.2-0.9-4.9c0-0.4,0-0.8,0-1.3l0.1-0.6
	c0-0.1,0-0.2,0-0.3l0.2-1.2l0-0.1l0,0l0,0l0-0.2c0.1-0.4,0.2-0.8,0.3-1.2c0.5-1.6,1.2-3.1,2.1-4.5c0.8-1.4,1.8-2.8,2.7-4.1
	c1-1.3,1.9-2.6,2.8-3.9c0.2-0.3,0.5-0.7,0.7-1c0.2-0.3,0.4-0.7,0.7-1l0.3-0.5l0.6-1l0.3-0.5c0.8-1.4,1.4-2.8,2-4.3
	c1.2-2.9,2.1-6,3-9.1l0.7-2.4l0.7,2.4c1,3.3,2,6.6,3,10c1,3.3,2,6.7,2.9,10c0.5,1.7,0.9,3.3,1.3,5c0.4,1.7,0.8,3.4,1.1,5.1
	c0.2,0.8,0.3,1.7,0.5,2.6c0.1,0.9,0.3,1.7,0.4,2.6C93.2,69.3,93.2,71.1,92.9,72.8z M92.9,72.8c0.4-1.7,0.3-3.5,0.1-5.2
	c-0.2-1.7-0.5-3.4-0.9-5.1c-0.4-1.7-0.8-3.4-1.3-5c-0.5-1.7-1-3.3-1.5-5c-1.1-3.3-2.3-6.6-3.4-9.8c-1.2-3.3-2.3-6.6-3.4-9.8l1.4,0
	c-0.4,1.6-0.8,3.1-1.2,4.7c-0.4,1.6-0.9,3.1-1.5,4.7c-0.6,1.5-1.3,3-2.1,4.5l-0.3,0.6l-0.3,0.5l-0.3,0.5l-0.3,0.5
	c-0.4,0.7-0.9,1.4-1.4,2c-1,1.3-1.9,2.6-2.9,3.9c-0.9,1.3-1.9,2.6-2.7,3.9c-0.8,1.3-1.5,2.7-2,4.2c-0.1,0.4-0.2,0.7-0.4,1.1l0,0.1
	l0,0l0,0c0,0,0,0,0,0l0,0.1l-0.3,1.2c0,0.1,0,0.2,0,0.3L68,66.1C68,66.4,68,66.8,68,67.2c0,1.5,0.2,3.1,0.6,4.6
	c0.4,1.5,1.1,2.9,1.9,4.2c0.9,1.3,1.9,2.5,3.2,3.4c0.2,0.1,0.3,0.2,0.5,0.4l1,0.6c0.2,0.1,0.4,0.2,0.5,0.3l0.5,0.2l0.1,0.1
	c0,0,0.1,0,0.1,0l0.3,0.1l0.6,0.2c0.1,0,0.2,0.1,0.3,0.1l0.3,0.1c1.5,0.4,3.1,0.5,4.7,0.2c1.6-0.2,3.1-0.8,4.5-1.5
	c1.4-0.8,2.7-1.8,3.7-3.1C91.8,75.8,92.5,74.3,92.9,72.8"/>
<path class="st0" d="M90.8,12.1c0,0,0-0.2,0-0.6c0-0.2,0-0.4-0.1-0.7c0-0.1,0-0.3-0.1-0.4c0-0.1-0.1-0.3-0.1-0.5
	c-0.2-0.7-0.5-1.5-1.1-2.2c-0.6-0.8-1.3-1.6-2.3-2.2c-0.5-0.3-1-0.6-1.6-0.7c-0.1,0-0.3-0.1-0.4-0.1c-0.2,0-0.3-0.1-0.5-0.1
	c-0.3-0.1-0.6-0.1-0.9-0.1c-0.2,0-0.3,0-0.5,0h-0.3l-0.1,0c0,0,0,0,0,0h0l0,0l-0.1,0c-0.3,0-0.7,0.1-1,0.2c-0.7,0.1-1.3,0.4-1.9,0.7
	c-0.6,0.3-1.2,0.7-1.7,1.2c-0.5,0.5-0.9,1-1.3,1.6c-0.4,0.6-0.6,1.2-0.8,1.9c-0.1,0.3-0.2,0.7-0.2,1c0,0.2-0.1,0.3-0.1,0.5l0,0.5
	c0,0.7,0.1,1.4,0.3,2.1c0.2,0.7,0.5,1.3,0.8,1.9c0.4,0.6,0.8,1.1,1.3,1.6c0.5,0.5,1.1,0.9,1.7,1.2c0.6,0.3,1.3,0.6,1.9,0.7
	c0.3,0.1,0.7,0.1,1,0.1c0.1,0,0.3,0,0.5,0c0.2,0,0.3,0,0.5,0c1.3-0.1,2.5-0.5,3.5-1.1c1-0.6,1.8-1.4,2.3-2.2
	c0.6-0.8,0.9-1.6,1.1-2.2c0-0.2,0.1-0.3,0.1-0.5c0-0.2,0.1-0.3,0.1-0.4c0-0.3,0.1-0.5,0.1-0.7C90.8,12.3,90.8,12.1,90.8,12.1z
	 M90.8,12.1c0,0,0,0.2,0,0.6c0,0.2,0,0.4-0.1,0.7c0,0.1,0,0.3-0.1,0.4c0,0.2-0.1,0.3-0.1,0.5c-0.2,0.7-0.5,1.5-1,2.3
	s-1.2,1.7-2.2,2.4c-1,0.7-2.2,1.3-3.6,1.6c-0.2,0-0.4,0-0.5,0.1c-0.2,0-0.3,0.1-0.6,0c-0.4,0-0.7,0-1.1,0c-0.8-0.1-1.5-0.2-2.3-0.5
	c-0.8-0.3-1.5-0.7-2.1-1.2c-0.7-0.5-1.3-1.1-1.8-1.8c-0.5-0.7-0.9-1.5-1.2-2.3c-0.3-0.8-0.4-1.7-0.4-2.6l0-0.6c0-0.2,0-0.4,0.1-0.7
	c0.1-0.5,0.2-0.9,0.3-1.3c0.3-0.8,0.7-1.6,1.2-2.3c0.5-0.7,1.1-1.3,1.8-1.8c0.7-0.5,1.4-0.9,2.1-1.2c1.5-0.6,3.1-0.7,4.5-0.4
	c0.4,0.1,0.7,0.1,1,0.2C84.8,4,85,4,85.2,4.1c0.2,0.1,0.3,0.1,0.5,0.2c0.6,0.2,1.2,0.6,1.7,0.9c1,0.7,1.7,1.6,2.2,2.4
	c0.5,0.8,0.8,1.6,1,2.3c0,0.2,0.1,0.3,0.1,0.5c0,0.2,0,0.3,0.1,0.4c0,0.3,0.1,0.5,0.1,0.7C90.8,11.9,90.8,12.1,90.8,12.1"/>
<path class="st0" d="M83.1,87c-0.4,1.3-0.1,2.8,0.7,3.9c0.7,1.2,1.8,2.1,2.9,2.8c2.2,1.5,4.8,2.5,7.4,3.2c1.3,0.4,2.6,0.7,4,0.9
	c1.3,0.2,2.7,0.5,4,0.6c2.7,0.3,5.4,0.5,8.1,0.4c2.7,0,5.4-0.3,8.2-0.3c1.4,0,2.8,0,4.1,0.1c0.7,0,1.4,0.1,2.1,0.2
	c0.7,0.1,1.4,0.2,2.1,0.4c0.7,0.2,1.4,0.4,2,0.7c0.3,0.2,0.7,0.3,1,0.6c0.3,0.2,0.6,0.5,0.9,0.9c0.1,0.2,0.2,0.4,0.2,0.7
	s-0.1,0.6-0.2,0.8c-0.3,0.4-0.6,0.7-0.9,0.9c-0.7,0.4-1.4,0.6-2,0.8c-1.4,0.3-2.7,0.6-4.1,0.8c-1.3,0.2-2.7,0.4-4.1,0.6
	c-2.7,0.4-5.4,0.7-8.2,1l-4.1,0.4l-4.1,0.3L99,108l-4.1,0.2c-2.7,0.1-5.5,0.2-8.2,0.2c-1.4,0-2.7,0-4.1,0l-2.1,0l-2.1,0
	c-1.4,0-2.7-0.1-4.1-0.1c-1.4-0.1-2.7-0.1-4.1-0.2c-2.7-0.1-5.5-0.3-8.2-0.6l-4.1-0.4l-4.1-0.5l-0.1,0l0-0.1
	c-0.1-0.2-0.2-0.4-0.2-0.7c0-0.2,0.1-0.5,0.2-0.7c0.3-0.4,0.6-0.6,1-0.8c0.7-0.4,1.5-0.7,2.3-0.8c0.8-0.2,1.6-0.3,2.4-0.3
	c0.8,0,1.6,0,2.4,0.2c-0.8-0.1-1.6-0.1-2.4-0.1c-0.8,0.1-1.6,0.2-2.4,0.4c-0.8,0.2-1.5,0.5-2.2,0.9c-0.3,0.2-0.7,0.5-0.9,0.8
	c-0.1,0.2-0.2,0.3-0.1,0.5c0,0.2,0.1,0.3,0.2,0.5l-0.1-0.1l4.1,0.3l4.1,0.3c2.7,0.2,5.5,0.3,8.2,0.4c1.4,0.1,2.7,0.1,4.1,0.1
	c1.4,0,2.7,0,4.1,0l2,0l2,0c1.4,0,2.7,0,4.1-0.1c2.7,0,5.5-0.1,8.2-0.3l4.1-0.2l4.1-0.3l4.1-0.4l4.1-0.4c2.7-0.3,5.4-0.6,8.1-1
	c1.3-0.2,2.7-0.4,4.1-0.6c1.4-0.2,2.7-0.4,4-0.7c0.6-0.2,1.3-0.4,1.8-0.7c0.3-0.1,0.5-0.3,0.6-0.5c0-0.1,0.1-0.1,0.1-0.2
	c0-0.1,0-0.2-0.1-0.2c-0.1-0.2-0.3-0.4-0.6-0.6c-0.2-0.2-0.5-0.3-0.8-0.5c-0.6-0.3-1.2-0.5-1.8-0.7c-0.6-0.2-1.3-0.3-1.9-0.4
	c-0.7-0.1-1.3-0.2-2-0.2c-1.3-0.1-2.7-0.1-4.1-0.1c-2.7,0-5.5,0.2-8.2,0.2c-2.8,0-5.5-0.2-8.2-0.6c-2.7-0.4-5.4-0.9-8.1-1.7
	c-1.3-0.4-2.6-0.9-3.9-1.4c-1.3-0.6-2.5-1.2-3.6-2.1c-0.5-0.4-1.1-0.8-1.6-1.3c-0.5-0.5-0.9-1-1.3-1.6C82.9,89.8,82.7,88.3,83.1,87"
	/>
<path class="st0" d="M77.5,87.2c0,0,0.1,0.4,0.3,1c0.1,0.3,0.2,0.8,0.4,1.3c0.1,0.5,0.2,1.1,0.3,1.8c0,0.7-0.1,1.4-0.3,2.2
	c-0.3,0.8-0.8,1.5-1.4,2.2c-0.7,0.7-1.5,1.3-2.4,1.8c-0.9,0.5-2,0.9-3,1.2c-2.2,0.7-4.6,1.1-7.2,1.5c-2.6,0.4-5.3,0.7-8.1,1.1
	c-1.4,0.2-2.8,0.5-4.2,0.8c-1.4,0.3-2.8,0.8-4.1,1.3c-0.6,0.3-1.3,0.6-1.8,1.1c-0.2,0.2-0.4,0.4-0.6,0.7c0,0.1-0.1,0.1-0.1,0.2l0,0
	l0,0c0,0,0-0.1,0,0l0,0.1c0,0.2,0,0.3,0,0.4c0.1,0.2,0.2,0.5,0.4,0.7c0.2,0.2,0.5,0.5,0.8,0.7c0.6,0.4,1.2,0.7,1.9,1
	c1.3,0.6,2.8,0.9,4.2,1.2c1.4,0.3,2.9,0.5,4.4,0.6c2.9,0.3,5.8,0.4,8.7,0.5c2.8,0.1,5.5,0.2,8.1,0.2c2.6,0.1,5,0.1,7.3,0.1
	c2.3,0,4.3,0,6.2,0c1.8,0,3.4,0,4.8-0.1c2.6,0,4.1-0.1,4.1-0.1s-0.4,0-1.1,0.1c-0.7,0.1-1.7,0.1-3.1,0.2c-1.3,0.1-2.9,0.2-4.7,0.3
	c-1.8,0.1-3.9,0.2-6.2,0.2c-4.5,0.1-9.8,0.2-15.4,0.1c-2.8-0.1-5.8-0.1-8.7-0.4c-1.5-0.1-3-0.3-4.5-0.6c-1.5-0.3-3-0.7-4.4-1.3
	c-0.7-0.3-1.4-0.7-2.1-1.1c-0.3-0.2-0.6-0.5-0.9-0.8c-0.3-0.3-0.6-0.7-0.7-1.2c-0.1-0.3-0.1-0.6,0-0.8l0-0.1c0,0,0-0.1,0-0.1l0,0
	l0-0.1c0-0.1,0.1-0.2,0.1-0.3c0.2-0.4,0.5-0.8,0.8-1c0.6-0.5,1.3-0.9,2-1.2c1.4-0.6,2.9-1,4.3-1.4s2.9-0.6,4.3-0.8
	c2.8-0.4,5.5-0.6,8.1-0.9c2.6-0.3,5-0.7,7.1-1.3c2.1-0.6,4-1.5,5.3-2.7c0.7-0.6,1.2-1.3,1.4-2c0.3-0.7,0.4-1.4,0.4-2.1
	c0-1.3-0.3-2.3-0.5-3C77.6,87.6,77.5,87.2,77.5,87.2"/>
<path class="st0" d="M107,96.2c0,0,0.4,0,1.3,0.1c0.8,0.1,2,0.2,3.6,0.3c1.5,0.1,3.4,0.2,5.5,0.3c2.1,0.1,4.6,0.2,7.2,0.3
	c2.6,0.1,5.5,0.2,8.5,0.3c3,0.1,6.2,0.2,9.5,0.3c1.7,0.1,3.3,0.2,5,0.2s3.4,0.2,5.2,0.4s3.5,0.5,5.2,1c0.9,0.3,1.7,0.6,2.6,1
	c0.4,0.2,0.8,0.5,1.2,0.8c0.4,0.3,0.7,0.7,0.9,1.3c0,0.2,0.1,0.3,0.1,0.5c0,0.2,0,0.3-0.1,0.5l-0.1,0.2c0,0,0,0.1,0,0.1l0,0
	l-0.1,0.2l-0.1,0.2c0,0.1-0.1,0.1-0.1,0.2l-0.1,0.1c-0.1,0.1-0.2,0.2-0.3,0.3c-0.2,0.2-0.4,0.3-0.6,0.4c-0.8,0.5-1.7,0.8-2.5,1.1
	c-1.7,0.6-3.4,1-5.1,1.5c-3.4,0.9-6.7,1.6-10,2.2c-3.2,0.6-6.4,1.1-9.4,1.5c-3,0.4-5.8,0.7-8.5,1c-2.6,0.3-5,0.4-7.2,0.5
	c-2.1,0.1-4,0.2-5.5,0.2c-1.5,0-2.8,0-3.6,0c-0.8,0-1.3,0-1.3,0s0.4,0,1.3-0.1c0.8,0,2-0.1,3.6-0.2c1.5-0.1,3.4-0.2,5.5-0.4
	c1.1-0.1,2.2-0.2,3.4-0.3c0.6-0.1,1.2-0.1,1.8-0.2c0.6-0.1,1.3-0.1,1.9-0.2c2.6-0.3,5.4-0.7,8.4-1.1c3-0.5,6.1-1,9.3-1.7
	c3.2-0.7,6.5-1.4,9.9-2.3c1.7-0.5,3.4-0.9,5-1.5c0.8-0.3,1.6-0.6,2.3-1c0.2-0.1,0.3-0.2,0.5-0.3c0.1-0.1,0.2-0.1,0.2-0.2l0.1-0.1
	c0,0,0-0.1,0.1-0.1c0,0,0-0.1,0.1-0.1l0.1-0.1l0-0.1l0,0c0,0,0,0.1,0,0c0,0,0-0.1,0-0.1c0-0.1,0-0.1,0-0.2c0-0.1,0-0.1,0-0.2
	c-0.1-0.3-0.3-0.5-0.6-0.8s-0.6-0.5-1-0.7c-0.7-0.4-1.5-0.7-2.3-0.9c-1.6-0.5-3.3-0.8-5-1c-3.4-0.4-6.8-0.6-10.1-0.8
	c-6.6-0.4-12.7-0.7-18-1c-2.6-0.2-5-0.3-7.2-0.5c-2.1-0.2-4-0.4-5.5-0.5c-1.5-0.2-2.7-0.3-3.5-0.4C107.4,96.2,107,96.2,107,96.2"/>
<path class="st0" d="M69,95.9c0,0-0.6,0.1-1.8,0.2c-1.2,0.2-2.9,0.4-5.1,0.6c-2.2,0.3-4.9,0.6-8,0.9c-3.1,0.3-6.6,0.7-10.4,1
	c-3.8,0.3-7.9,0.7-12.3,1c-2.2,0.2-4.4,0.3-6.7,0.5c-2.3,0.2-4.6,0.3-7,0.6c-1.2,0.2-2.3,0.4-3.5,0.6c-1.1,0.3-2.3,0.7-3.2,1.3
	l-0.1,0.1c0,0-0.1,0-0.1,0.1c-0.1,0-0.1,0.1-0.2,0.1c-0.1,0.1-0.2,0.2-0.3,0.3c-0.2,0.2-0.3,0.4-0.4,0.6c-0.2,0.4-0.1,0.9,0.1,1.4
	c0.4,1,1.3,1.8,2.3,2.5c2,1.4,4.3,2.3,6.7,3.1c2.4,0.8,4.8,1.4,7.3,2c1.2,0.3,2.5,0.5,3.7,0.8c1.2,0.2,2.5,0.4,3.7,0.6
	c1.2,0.2,2.5,0.4,3.7,0.6c1.2,0.2,2.5,0.4,3.7,0.5c5,0.6,9.9,1.1,14.6,1.4c4.8,0.3,9.3,0.5,13.7,0.7c1.1,0,2.2,0.1,3.2,0.1
	c1.1,0,2.1,0,3.1,0.1c2.1,0,4,0.1,5.9,0.1c7.6,0.1,14,0.1,18.4,0.1c4.5,0,7,0,7,0s-0.6,0-1.8,0.1c-1.2,0-2.9,0.1-5.2,0.2
	c-2.2,0.1-4.9,0.1-8,0.2c-1.6,0-3.2,0.1-4.9,0.1c-1.7,0-3.6,0-5.5,0.1c-1.9,0-3.9,0-6,0c-1,0-2.1,0-3.1,0c-1.1,0-2.1,0-3.2-0.1
	c-2.2,0-4.4-0.1-6.7-0.2c-2.3-0.1-4.6-0.2-7-0.3c-4.8-0.3-9.7-0.7-14.7-1.3c-1.2-0.1-2.5-0.3-3.7-0.5c-1.3-0.2-2.5-0.3-3.8-0.6
	c-1.3-0.2-2.5-0.4-3.8-0.6c-1.3-0.2-2.5-0.5-3.8-0.8c-2.5-0.6-5-1.2-7.4-2.1c-1.2-0.4-2.4-0.9-3.6-1.4c-1.2-0.5-2.3-1.1-3.4-1.9
	c-0.5-0.4-1-0.8-1.5-1.3c-0.2-0.2-0.4-0.5-0.6-0.8c-0.1-0.2-0.2-0.3-0.3-0.5l-0.1-0.2L9.3,106c0-0.1,0-0.1-0.1-0.1
	c-0.3-0.6-0.4-1.5-0.1-2.2c0.1-0.4,0.3-0.7,0.6-0.9c0.1-0.1,0.2-0.3,0.4-0.4c0.1-0.1,0.1-0.1,0.2-0.1c0,0,0,0,0.1-0.1l0.1-0.1
	c1.1-0.8,2.3-1.1,3.5-1.4c1.2-0.3,2.4-0.5,3.6-0.7c2.4-0.3,4.7-0.5,7-0.6c2.3-0.1,4.5-0.3,6.7-0.4c4.4-0.3,8.5-0.6,12.3-0.9
	c7.6-0.6,13.9-1.1,18.4-1.5C66.5,96.2,69,95.9,69,95.9"/>
<path class="st0" d="M84.2,114.6c0,0-0.3,0-0.9,0c-0.6,0-1.4,0.1-2.4,0.1c-1,0-2.3,0.1-3.8,0.1c-1.5,0-3.1,0.1-4.9,0.1
	c-0.9,0-1.8,0-2.8,0c-1,0-2,0-3-0.1c-2.1-0.1-4.2-0.1-6.5-0.3c-1.1-0.1-2.3-0.1-3.4-0.2c-1.2-0.1-2.3-0.2-3.5-0.3
	c-2.3-0.2-4.7-0.4-7.1-0.7c-2.4-0.3-4.8-0.6-7.1-0.9c-2.3-0.3-4.6-0.7-6.8-1.2c-1.1-0.3-2.2-0.6-3.2-1c-0.5-0.2-1-0.5-1.5-0.8
	c-0.5-0.3-0.9-0.7-1.2-1.3c0-0.1-0.1-0.3-0.1-0.5c0-0.2,0-0.3,0-0.5c0-0.3,0.1-0.6,0.3-0.9c0.3-0.5,0.7-0.9,1.1-1.2
	c0.8-0.6,1.7-1,2.5-1.4c1.7-0.8,3.2-1.3,4.6-1.8c1.4-0.5,2.6-0.9,3.6-1.2c1-0.3,1.8-0.6,2.3-0.8c0.5-0.2,0.8-0.3,0.8-0.3
	s-0.3,0.1-0.8,0.3c-0.5,0.2-1.3,0.5-2.2,0.9c-1,0.4-2.2,0.9-3.5,1.4c-1.4,0.5-2.9,1.2-4.5,1.9c-0.8,0.4-1.6,0.9-2.3,1.4
	c-0.3,0.3-0.7,0.6-0.9,1c-0.2,0.4-0.2,0.7-0.1,1.1c0.2,0.3,0.5,0.7,0.9,0.9c0.4,0.2,0.9,0.5,1.3,0.7c1,0.4,2,0.7,3.1,0.9
	c2.2,0.5,4.4,0.8,6.8,1.1c2.3,0.3,4.7,0.6,7.1,0.9c2.4,0.3,4.7,0.5,7.1,0.7c2.3,0.2,4.6,0.4,6.9,0.6c2.2,0.2,4.4,0.3,6.4,0.4
	c2,0.1,4,0.2,5.8,0.3c1.8,0.1,3.4,0.1,4.9,0.2c1.5,0.1,2.7,0.1,3.8,0.1C83,114.6,84.2,114.6,84.2,114.6"/>
<path class="st0" d="M80.2,80c0,0,0.6-0.1,1.6-0.3c0.5-0.1,1.1-0.2,1.8-0.4s1.4-0.4,2.2-0.8c0.8-0.3,1.6-0.8,2.4-1.4
	c0.8-0.6,1.4-1.5,1.9-2.4c0.5-1,0.8-2,0.9-3.2c0.1-1.1,0.1-2.3-0.1-3.4c-0.1-1.1-0.4-2.3-0.7-3.4c-0.3-1.1-0.5-2.2-0.8-3.3
	c-0.5-2.1-1.1-4.1-1.6-5.8c-0.5-1.7-0.9-3.1-1.2-4.1c-0.3-1-0.5-1.5-0.5-1.5s0.2,0.6,0.5,1.5c0.3,1,0.8,2.3,1.3,4
	c0.5,1.7,1.1,3.6,1.7,5.7c0.3,1.1,0.6,2.1,0.8,3.3c0.3,1.1,0.5,2.3,0.7,3.4c0.2,1.2,0.2,2.3,0.1,3.5c-0.1,1.2-0.4,2.3-0.9,3.3
	c-0.5,1-1.2,1.9-2,2.5c-0.8,0.6-1.6,1.1-2.5,1.4c-0.8,0.3-1.6,0.6-2.3,0.7c-0.7,0.2-1.3,0.3-1.8,0.3c-0.5,0.1-0.9,0.1-1.2,0.2
	S80.2,80,80.2,80"/>
<path class="st0" d="M80.3,41.9c0,0,0.2,0.1,0.5,0.4c0.3,0.2,0.7,0.6,1.1,1c0.4,0.4,0.7,0.8,1,1.1c0.2,0.3,0.4,0.5,0.4,0.5
	s-0.2-0.1-0.5-0.4c-0.3-0.2-0.7-0.6-1.1-1c-0.4-0.4-0.7-0.8-1-1.1C80.5,42.1,80.3,41.9,80.3,41.9"/>
<path class="st0" d="M79,44.9c0,0,0.1,0.1,0.3,0.2c0.2,0.1,0.4,0.3,0.6,0.5c0.5,0.5,1.2,1.1,1.9,1.7c0.7,0.7,1.3,1.3,1.7,1.9
	c0.2,0.3,0.4,0.5,0.5,0.6c0.1,0.2,0.2,0.2,0.2,0.2s-0.1-0.1-0.2-0.2c-0.2-0.1-0.4-0.3-0.6-0.5c-0.5-0.5-1.2-1.1-1.9-1.7
	c-0.7-0.7-1.3-1.3-1.7-1.9c-0.2-0.3-0.4-0.5-0.5-0.6C79.1,45,79,44.9,79,44.9"/>
<path class="st0" d="M78.1,46.7c0,0,0.1,0.1,0.3,0.3c0.2,0.2,0.5,0.4,0.8,0.7c0.3,0.3,0.7,0.7,1.2,1.1c0.4,0.4,0.9,0.8,1.3,1.3
	c0.4,0.4,0.9,0.9,1.3,1.3c0.4,0.4,0.8,0.8,1.1,1.2c0.3,0.3,0.6,0.6,0.7,0.8c0.2,0.2,0.3,0.3,0.3,0.3s-0.1-0.1-0.3-0.3
	c-0.2-0.2-0.5-0.4-0.8-0.7c-0.3-0.3-0.7-0.7-1.2-1.1c-0.4-0.4-0.8-0.8-1.3-1.3c-0.4-0.4-0.9-0.9-1.3-1.3c-0.4-0.4-0.8-0.8-1.1-1.2
	c-0.3-0.3-0.6-0.6-0.7-0.8C78.1,46.8,78.1,46.7,78.1,46.7"/>
<path class="st0" d="M77.1,48.3c0,0,0.1,0.1,0.4,0.3c0.2,0.2,0.6,0.5,0.9,0.8c0.4,0.4,0.8,0.8,1.3,1.2c0.5,0.5,1,0.9,1.5,1.4
	c0.5,0.5,1,1,1.4,1.5c0.5,0.5,0.9,0.9,1.2,1.3c0.4,0.4,0.6,0.7,0.8,0.9c0.2,0.2,0.3,0.4,0.3,0.4s-0.1-0.1-0.4-0.3
	c-0.2-0.2-0.6-0.5-0.9-0.8c-0.4-0.4-0.8-0.8-1.3-1.2c-0.5-0.4-1-0.9-1.5-1.4c-0.5-0.5-1-1-1.4-1.5c-0.5-0.5-0.9-0.9-1.2-1.3
	c-0.4-0.4-0.6-0.7-0.8-0.9C77.2,48.4,77.1,48.3,77.1,48.3"/>
<path class="st0" d="M75.8,50.2c0,0,0.1,0.1,0.3,0.3c0.2,0.2,0.5,0.4,0.9,0.8c0.4,0.3,0.8,0.7,1.2,1.1c0.4,0.4,0.9,0.9,1.4,1.3
	c0.5,0.5,0.9,0.9,1.3,1.4c0.4,0.4,0.8,0.9,1.1,1.2c0.3,0.4,0.6,0.7,0.8,0.9c0.2,0.2,0.3,0.3,0.3,0.3s-0.1-0.1-0.3-0.3
	c-0.2-0.2-0.5-0.4-0.9-0.8c-0.4-0.3-0.8-0.7-1.2-1.1c-0.4-0.4-0.9-0.9-1.4-1.3c-0.5-0.5-0.9-0.9-1.3-1.4c-0.4-0.4-0.8-0.9-1.1-1.2
	c-0.3-0.4-0.6-0.7-0.8-0.9C75.9,50.3,75.8,50.2,75.8,50.2"/>
<path class="st0" d="M74.6,51.7c0,0,0.2,0.1,0.4,0.4c0.3,0.2,0.7,0.6,1.1,1c0.5,0.4,1,0.9,1.6,1.5c0.6,0.5,1.2,1.1,1.8,1.7
	c0.6,0.6,1.2,1.2,1.7,1.8c0.6,0.6,1.1,1.1,1.5,1.6c0.4,0.5,0.8,0.9,1,1.1c0.2,0.3,0.4,0.4,0.4,0.4s-0.2-0.1-0.4-0.4
	c-0.3-0.2-0.7-0.6-1.1-1c-0.5-0.4-1-0.9-1.6-1.5c-0.6-0.5-1.2-1.1-1.8-1.7c-0.6-0.6-1.2-1.2-1.7-1.8c-0.6-0.6-1.1-1.1-1.5-1.6
	c-0.4-0.5-0.8-0.9-1-1.1C74.8,51.9,74.6,51.7,74.6,51.7"/>
<path class="st0" d="M73.2,53.6c0,0,0.2,0.2,0.5,0.5c0.3,0.3,0.8,0.8,1.4,1.3s1.2,1.2,2,1.9c0.7,0.7,1.5,1.4,2.2,2.2
	c0.7,0.8,1.5,1.5,2.2,2.2c0.7,0.7,1.3,1.4,1.9,2c0.6,0.6,1,1.1,1.3,1.4c0.3,0.3,0.5,0.5,0.5,0.5s-0.2-0.2-0.5-0.5
	c-0.3-0.3-0.8-0.8-1.4-1.3c-0.6-0.6-1.2-1.2-2-1.9c-0.7-0.7-1.5-1.4-2.2-2.2c-0.7-0.8-1.5-1.5-2.2-2.2c-0.7-0.7-1.3-1.4-1.9-2
	c-0.5-0.6-1-1.1-1.3-1.4C73.4,53.8,73.2,53.6,73.2,53.6"/>
<path class="st0" d="M71.5,54.4c0,0,0.1,0.1,0.3,0.2c0.2,0.1,0.4,0.3,0.7,0.6c0.5,0.5,1.2,1.1,1.9,1.8c0.7,0.7,1.3,1.4,1.8,1.9
	c0.2,0.3,0.4,0.5,0.6,0.7c0.1,0.2,0.2,0.3,0.2,0.3s-0.1-0.1-0.3-0.2c-0.2-0.1-0.4-0.3-0.7-0.6c-0.5-0.5-1.2-1.1-1.9-1.8
	c-0.7-0.7-1.3-1.4-1.8-1.9c-0.2-0.3-0.4-0.5-0.6-0.7C71.5,54.5,71.5,54.4,71.5,54.4"/>
<path class="st0" d="M70.4,57.1c0,0,0.1,0.1,0.3,0.3c0.2,0.2,0.5,0.4,0.8,0.7c0.3,0.3,0.7,0.7,1.2,1.1c0.4,0.4,0.9,0.8,1.3,1.3
	c0.4,0.4,0.9,0.9,1.3,1.3c0.4,0.4,0.8,0.8,1.1,1.2s0.6,0.6,0.7,0.8c0.2,0.2,0.3,0.3,0.3,0.3s-0.1-0.1-0.3-0.3
	c-0.2-0.2-0.5-0.4-0.8-0.7s-0.7-0.7-1.2-1.1c-0.4-0.4-0.8-0.8-1.3-1.3c-0.4-0.4-0.9-0.9-1.3-1.3s-0.8-0.8-1.1-1.2
	c-0.3-0.3-0.6-0.6-0.7-0.8C70.5,57.2,70.4,57.1,70.4,57.1"/>
<path class="st0" d="M69.2,59.8c0,0,0.1,0.1,0.3,0.3c0.2,0.2,0.5,0.4,0.8,0.7c0.3,0.3,0.7,0.7,1.1,1c0.4,0.4,0.8,0.8,1.3,1.2
	c0.4,0.4,0.8,0.9,1.2,1.3c0.4,0.4,0.7,0.8,1,1.1c0.3,0.3,0.6,0.6,0.7,0.8c0.2,0.2,0.3,0.3,0.3,0.3s-0.1-0.1-0.3-0.3
	c-0.2-0.2-0.5-0.4-0.8-0.7c-0.3-0.3-0.7-0.7-1.1-1s-0.8-0.8-1.3-1.2c-0.4-0.4-0.8-0.9-1.2-1.3s-0.7-0.8-1-1.1
	c-0.3-0.3-0.6-0.6-0.7-0.8C69.3,59.9,69.2,59.8,69.2,59.8"/>
<path class="st0" d="M69.8,58.6c0,0,0.1,0.1,0.2,0.2c0.2,0.1,0.4,0.3,0.6,0.5c0.5,0.5,1.2,1.1,1.9,1.8s1.3,1.3,1.8,1.9
	c0.2,0.3,0.4,0.5,0.5,0.7c0.1,0.2,0.2,0.2,0.2,0.2s-0.1-0.1-0.2-0.2c-0.2-0.1-0.4-0.3-0.7-0.5c-0.5-0.5-1.2-1.1-1.9-1.8
	c-0.7-0.7-1.3-1.3-1.8-1.9c-0.2-0.3-0.4-0.5-0.5-0.7C69.9,58.7,69.8,58.6,69.8,58.6"/>
<path class="st0" d="M68.5,61.3c0,0,0.1,0.1,0.3,0.2c0.2,0.1,0.4,0.3,0.7,0.6c0.6,0.5,1.3,1.2,2,1.9c0.7,0.7,1.4,1.5,1.9,2
	c0.3,0.3,0.5,0.5,0.6,0.7c0.1,0.2,0.2,0.3,0.2,0.3s-0.1-0.1-0.3-0.2c-0.2-0.1-0.4-0.3-0.7-0.6c-0.6-0.5-1.3-1.2-2-1.9
	c-0.7-0.7-1.4-1.5-1.9-2c-0.3-0.3-0.5-0.5-0.6-0.7C68.6,61.4,68.5,61.3,68.5,61.3"/>
<path class="st0" d="M67.7,63.8c0,0,0.1,0.1,0.3,0.2c0.2,0.2,0.5,0.4,0.8,0.7c0.6,0.6,1.4,1.3,2.2,2.1c0.8,0.8,1.6,1.6,2.1,2.2
	c0.3,0.3,0.5,0.6,0.7,0.8s0.2,0.3,0.2,0.3s-0.1-0.1-0.3-0.2c-0.2-0.2-0.5-0.4-0.8-0.7c-0.6-0.6-1.4-1.3-2.2-2.1
	c-0.8-0.8-1.6-1.6-2.1-2.2c-0.3-0.3-0.5-0.6-0.7-0.8C67.7,63.9,67.7,63.8,67.7,63.8"/>
<path class="st0" d="M67.2,67c0,0,0.1,0.1,0.3,0.3c0.2,0.2,0.5,0.4,0.8,0.7c0.3,0.3,0.7,0.7,1.2,1.1c0.4,0.4,0.8,0.8,1.3,1.3
	c0.4,0.4,0.9,0.9,1.3,1.3c0.4,0.4,0.8,0.8,1.1,1.2s0.6,0.6,0.7,0.8c0.2,0.2,0.3,0.3,0.3,0.3s-0.1-0.1-0.3-0.3
	c-0.2-0.2-0.5-0.4-0.8-0.7c-0.3-0.3-0.7-0.7-1.2-1.1c-0.4-0.4-0.9-0.8-1.3-1.3c-0.4-0.4-0.9-0.9-1.3-1.3c-0.4-0.4-0.8-0.8-1.1-1.2
	c-0.3-0.3-0.6-0.6-0.7-0.8C67.3,67.1,67.2,67,67.2,67"/>
<path class="st0" d="M67.5,69.9c0,0,0.1,0.1,0.3,0.3c0.2,0.2,0.5,0.5,0.9,0.8c0.4,0.3,0.8,0.7,1.3,1.2c0.5,0.4,0.9,0.9,1.4,1.4
	c0.5,0.5,0.9,1,1.4,1.4c0.4,0.5,0.8,0.9,1.2,1.3c0.3,0.4,0.6,0.7,0.8,0.9c0.2,0.2,0.3,0.4,0.3,0.4s-0.1-0.1-0.4-0.3
	c-0.2-0.2-0.5-0.5-0.9-0.8c-0.4-0.3-0.8-0.7-1.3-1.2c-0.5-0.4-0.9-0.9-1.4-1.4c-0.5-0.5-0.9-1-1.4-1.4c-0.4-0.5-0.8-0.9-1.2-1.3
	c-0.3-0.4-0.6-0.7-0.8-0.9C67.6,70.1,67.5,69.9,67.5,69.9"/>
<path class="st0" d="M85.2,78.9c0,0-0.1-0.1-0.2-0.2s-0.4-0.3-0.7-0.5c-0.5-0.5-1.2-1.1-1.9-1.8c-0.7-0.7-1.3-1.3-1.8-1.9
	c-0.2-0.3-0.4-0.5-0.5-0.6c-0.1-0.2-0.2-0.2-0.2-0.2s0.1,0.1,0.2,0.2c0.2,0.1,0.4,0.3,0.7,0.5c0.5,0.5,1.2,1.1,1.9,1.8
	c0.7,0.7,1.3,1.3,1.8,1.9c0.2,0.3,0.4,0.5,0.5,0.6C85.1,78.9,85.2,78.9,85.2,78.9"/>
<path class="st0" d="M86.8,78.2c0,0-0.3-0.2-0.7-0.5c-0.4-0.3-0.9-0.8-1.4-1.3c-0.5-0.5-0.9-1-1.3-1.4c-0.3-0.4-0.5-0.7-0.5-0.7
	s0.3,0.2,0.7,0.5c0.4,0.3,0.9,0.8,1.4,1.3s0.9,1,1.3,1.4C86.6,78,86.8,78.2,86.8,78.2"/>
<path class="st0" d="M89.2,77.5c0,0-0.3-0.2-0.6-0.5c-0.4-0.3-0.8-0.7-1.3-1.2c-0.4-0.4-0.9-0.9-1.2-1.3c-0.3-0.4-0.5-0.6-0.5-0.6
	s0.3,0.2,0.6,0.5c0.4,0.3,0.8,0.7,1.3,1.2c0.4,0.4,0.9,0.9,1.2,1.3C89,77.3,89.2,77.5,89.2,77.5"/>
<path class="st0" d="M89.2,76.3c0,0-0.1-0.1-0.2-0.2c-0.2-0.1-0.4-0.3-0.6-0.5c-0.5-0.4-1.2-1.1-1.8-1.7c-0.6-0.6-1.2-1.3-1.7-1.8
	c-0.2-0.3-0.4-0.5-0.5-0.6c-0.1-0.2-0.2-0.2-0.2-0.2s0.1,0.1,0.2,0.2c0.2,0.1,0.4,0.3,0.6,0.5c0.5,0.4,1.2,1.1,1.8,1.7
	c0.6,0.6,1.2,1.3,1.7,1.8c0.2,0.3,0.4,0.5,0.5,0.6C89.1,76.2,89.2,76.3,89.2,76.3"/>
<path class="st0" d="M90.4,74.4c0,0-0.2-0.1-0.6-0.4c-0.3-0.2-0.7-0.6-1.1-1c-0.4-0.4-0.7-0.8-1-1.1c-0.2-0.3-0.4-0.5-0.4-0.5
	s0.2,0.1,0.5,0.4c0.3,0.2,0.7,0.6,1.1,1c0.4,0.4,0.7,0.8,1,1.1C90.2,74.1,90.4,74.4,90.4,74.4"/>
<path class="st0" d="M90.9,72.9c0,0-0.1-0.1-0.3-0.2c-0.2-0.1-0.4-0.3-0.7-0.6c-0.6-0.5-1.3-1.2-2-1.9c-0.7-0.7-1.4-1.4-1.9-2
	c-0.2-0.3-0.4-0.5-0.6-0.7c-0.1-0.2-0.2-0.3-0.2-0.3s0.1,0.1,0.3,0.2c0.2,0.1,0.4,0.3,0.7,0.6c0.6,0.5,1.3,1.2,2,1.9
	c0.7,0.7,1.4,1.4,1.9,2c0.2,0.3,0.4,0.5,0.6,0.7C90.8,72.8,90.9,72.9,90.9,72.9"/>
<path class="st0" d="M91.2,70.4c0,0-0.1-0.1-0.2-0.2c-0.1-0.1-0.3-0.3-0.6-0.5c-0.5-0.4-1.1-0.9-1.6-1.5c-0.6-0.6-1.1-1.2-1.5-1.6
	c-0.2-0.2-0.4-0.4-0.5-0.6c-0.1-0.1-0.2-0.2-0.2-0.2s0.1,0.1,0.2,0.2c0.1,0.1,0.3,0.3,0.6,0.5c0.5,0.4,1.1,0.9,1.6,1.5
	s1.1,1.2,1.5,1.6c0.2,0.2,0.4,0.4,0.5,0.6C91.1,70.3,91.2,70.4,91.2,70.4"/>
<path class="st0" d="M5.1,103.3c0,0-0.1,0.1-0.3,0.3c-0.1,0.1-0.2,0.2-0.4,0.4c-0.1,0.2-0.3,0.3-0.4,0.6c-0.6,0.9-1.1,2.6-0.8,4.6
	c0.2,1,0.6,2.1,1.2,3.1c0.2,0.3,0.4,0.5,0.6,0.7c0.2,0.2,0.4,0.5,0.7,0.7c0.1,0.1,0.3,0.2,0.4,0.3c0.1,0.1,0.3,0.2,0.4,0.3
	c0.3,0.2,0.6,0.4,0.9,0.6c2.4,1.5,5.6,2.2,9.1,2.7c1.8,0.3,3.6,0.6,5.5,0.8c1.9,0.3,3.9,0.6,5.9,0.8c4,0.6,8.3,1.1,12.8,1.6
	c2.2,0.2,4.5,0.5,6.8,0.7c1.1,0.1,2.3,0.2,3.4,0.3c1.2,0.1,2.3,0.2,3.5,0.3c0.6,0.1,1.2,0.1,1.8,0.2c0.6,0,1.2,0.1,1.8,0.1
	c1.2,0.1,2.4,0.2,3.5,0.2c1.2,0.1,2.4,0.2,3.5,0.2c1.2,0.1,2.4,0.1,3.6,0.2c1.2,0.1,2.4,0.1,3.6,0.2c1.2,0,2.4,0.1,3.6,0.1
	c2.4,0.1,4.7,0.2,7.1,0.2c1.2,0,2.3,0,3.5,0c1.2,0,2.3,0.1,3.5,0c2.3,0,4.6,0,6.8,0c2.2,0,4.4-0.1,6.6-0.1c1.1,0,2.1,0,3.2-0.1
	c1,0,2.1-0.1,3.1-0.1c1,0,2-0.1,3-0.1c1-0.1,2-0.1,2.9-0.2c1.9-0.1,3.8-0.2,5.6-0.3c1.8-0.1,3.5-0.2,5.1-0.4
	c0.8-0.1,1.6-0.1,2.4-0.2c0.8-0.1,1.5-0.1,2.2-0.2c1.4-0.1,2.8-0.2,4.1-0.3c0.6,0,1.2-0.1,1.8-0.1c0.6-0.1,1.1-0.1,1.6-0.2
	c4.2-0.4,6.5-0.6,6.5-0.6s-2.4,0.4-6.5,1c-0.5,0.1-1.1,0.2-1.6,0.2c-0.6,0.1-1.2,0.2-1.8,0.2c-1.2,0.2-2.6,0.3-4,0.5
	c-0.7,0.1-1.5,0.2-2.2,0.3c-0.8,0.1-1.6,0.2-2.4,0.3c-1.6,0.2-3.3,0.3-5.1,0.5c-1.8,0.2-3.6,0.3-5.6,0.5c-1,0.1-1.9,0.2-2.9,0.2
	c-1,0.1-2,0.1-3,0.2c-1,0.1-2.1,0.1-3.1,0.2c-1,0.1-2.1,0.1-3.2,0.2c-2.2,0.1-4.3,0.2-6.6,0.2c-2.2,0-4.5,0.1-6.8,0.1
	c-2.3,0-4.6,0-7,0c-2.3,0-4.7-0.1-7.1-0.2c-1.2,0-2.4-0.1-3.6-0.1c-1.2-0.1-2.4-0.1-3.6-0.2c-1.2-0.1-2.4-0.1-3.6-0.2
	c-1.2-0.1-2.4-0.2-3.6-0.2s-2.4-0.2-3.6-0.2c-0.6,0-1.2-0.1-1.8-0.1c-0.6-0.1-1.2-0.1-1.8-0.2c-2.3-0.2-4.7-0.4-7-0.7
	c-2.3-0.3-4.5-0.5-6.8-0.8c-4.4-0.6-8.7-1.2-12.8-1.8c-4.1-0.6-7.8-1.4-11.4-2c-1.8-0.3-3.5-0.7-5-1.2c-1.6-0.5-3-1.1-4.3-2
	c-0.3-0.2-0.6-0.4-0.9-0.7c-0.1-0.1-0.3-0.2-0.4-0.3c-0.1-0.1-0.2-0.2-0.4-0.4c-0.3-0.2-0.5-0.5-0.7-0.8c-0.2-0.3-0.4-0.5-0.6-0.8
	c-0.7-1.1-1-2.3-1.2-3.3c-0.1-1.1-0.1-2,0.2-2.8c0-0.2,0.1-0.4,0.2-0.6c0.1-0.2,0.1-0.3,0.2-0.5c0.1-0.2,0.2-0.3,0.2-0.4
	c0.1-0.1,0.2-0.2,0.3-0.4c0.2-0.2,0.3-0.4,0.5-0.6c0.1-0.2,0.3-0.3,0.4-0.4C5,103.4,5.1,103.3,5.1,103.3"/>
<g>
	<g transform="translate(220.420948, 140.27444)">
	</g>
</g>
<g>
	<g transform="translate(85.845156, 187.208791)">
	</g>
</g>
<g>
	<g transform="translate(105.545586, 187.208791)">
	</g>
</g>
<g>
	<g transform="translate(121.620827, 187.208791)">
	</g>
</g>
<g>
	<g transform="translate(131.141521, 187.208791)">
	</g>
</g>
<g>
	<g transform="translate(146.384219, 187.208791)">
	</g>
</g>
<g>
	<g transform="translate(150.947516, 187.208791)">
	</g>
</g>
<g>
	<g transform="translate(166.888894, 187.208791)">
	</g>
</g>
<g>
	<g transform="translate(185.556908, 187.208791)">
	</g>
</g>
<g>
	<g transform="translate(200.283896, 187.208791)">
	</g>
</g>
<g>
	<g transform="translate(216.359136, 187.208791)">
	</g>
</g>
<g>
	<g transform="translate(233.782617, 187.208791)">
	</g>
</g>
<g>
	<g transform="translate(249.02816, 187.208791)">
	</g>
</g>
<g>
	<g transform="translate(264.368586, 187.208791)">
	</g>
</g>
<g>
	<g transform="translate(125.541937, 342.811209)">
	</g>
</g>
<g>
	<g transform="translate(177.094031, 342.811209)">
	</g>
</g>
<g>
	<g transform="translate(187.894048, 342.811209)">
	</g>
</g>
<g>
	<g transform="translate(236.41704, 342.811209)">
	</g>
</g>
</svg>
