<?xml version="1.0" encoding="UTF-8"?><svg id="Layer_1" xmlns="http://www.w3.org/2000/svg" viewBox="0 0 314.31 228.81"><defs><style>.cls-1{fill:#f6e49f;}</style></defs><path class="cls-1" d="M257.47,162.54h.36c.52,.07,1.02,.19,1.53,.33,.49,.16,.93,.46,1.32,.93,.13,.12,.25,.3,.33,.54,.07,.25,.07,.49-.03,.69-.06,.24-.19,.45-.39,.63-.18,.19-.34,.3-.48,.3-.92,.13-1.87,.13-2.84,0-22.99-4.77-48.47-7.85-76.46-9.24-27.97-1.38-53.78-.87-77.42,1.53-1.06,.06-2.09,.18-3.08,.36-.88,.06-1.73,.13-2.57,.21-2.63,.37-4.89,1.54-6.76,3.5-4.27,4.62-8.96,8.7-14.05,12.23-4.01,2.71-8.43,4.22-13.25,4.52-1.96,.13-3.84-.17-5.65-.93-1.72-.76-2.83-1.9-3.32-3.41-.5-1.5-.29-3.1,.63-4.81,1.51-2.44,3.99-4.52,7.45-6.25,3.47-1.72,7.16-3.12,11.09-4.22,3.92-1.1,7.24-1.91,9.96-2.42,3.63-.7,6.56-2.47,8.82-5.29,10.94-13.29,21.46-28.35,31.55-45.15,10.08-16.81,19.38-34.1,27.9-51.88,8.51-17.78,15.83-34.81,21.98-51.1,.19-.85,.55-1.59,1.05-2.21,.49-.64,1.23-1.08,2.18-1.32,.91-.13,1.7,.04,2.36,.54,.67,.5,.96,1.19,.84,2.06-.32,2.14-.86,4.21-1.61,6.22-5.86,15.45-12.81,31.55-20.84,48.29-8.04,16.75-16.78,33.07-26.22,48.98-9.45,15.89-19.2,30.28-29.25,43.15-2.09,2.63-2.74,4.16-1.91,4.58,.84,.43,2.45,.42,4.84-.06,.54-.06,1.06-.13,1.58-.21,18.85-2.12,38.4-2.75,58.64-1.91,20.25,.84,40.22,2.61,59.9,5.32,6.92,.99,13.7,2.12,20.33,3.38,3.9,.76,7.74,1.47,11.51,2.15Zm-190.99,11.63c5.76-2.33,10.53-6.03,14.29-11.06-6.2,.46-11.71,2.38-16.54,5.77-1.52,1.11-2.41,2.2-2.66,3.26-.26,1.08,.04,1.85,.93,2.33,.87,.48,2.2,.37,3.98-.3Z"/><path class="cls-1" d="M150.36,133.05c-3.24,0-4.87-1.69-4.87-5.08,0-4.14,2.69-11.46,8.07-21.95,.19-.46,.57-.69,1.11-.69,2.17,0,3.26,.86,3.26,2.57,0,.62-.19,1.38-.57,2.27-.14,.24-1.94,4.77-5.41,13.58-.54,1.44-.81,2.5-.81,3.17,0,.76,.34,1.14,1.02,1.14,2.51,0,9.07-6.22,19.68-18.66,1.38-1.67,2.73-2.51,4.07-2.51,1.95,0,2.93,.72,2.93,2.15,0,.56-.6,2.63-1.79,6.22-1.64,4.9-2.45,7.74-2.45,8.49,0,1.12,.37,1.67,1.11,1.67,1.89,0,7.39-3.35,16.51-10.05,.52-.46,.96-.69,1.35-.69,.85,0,1.29,.72,1.29,2.15,0,.38-.12,.69-.36,.93-4.84,4.15-8.96,7.31-12.35,9.48-3.09,1.97-5.83,2.96-8.22,2.96h-.72c-3.53-.76-5.29-3.51-5.29-8.25-3.77,3.31-6.9,6-9.39,8.04-2.47,2.03-5.19,3.05-8.13,3.05Z"/><path class="cls-1" d="M198.2,126.68c-.38-.37-.79-.7-1.23-.99-.2-.18-.39-.33-.57-.45-1.2,.44-2.21,1.11-3.02,2-.46,.54-1,1-1.61,1.38-.87,.68-1.85,.97-2.93,.87-.6-.06-1.08-.34-1.47-.87-.07-.06-.12-.22-.12-.51s.04-.49,.12-.63c.16-.16,.31-.31,.45-.45,.9-1.2,1.88-2.29,2.93-3.29,1.14-1.08,1.85-2.17,2.15-3.29,.31-1.14,.1-2.46-.66-3.98-.92-2.15-1.63-4.44-2.15-6.88-.13-.67-.3-1.39-.48-2.15-.3-1.03,.01-1.93,.93-2.69,.7-.48,1.44-.61,2.21-.42,.79,.18,1.35,.62,1.64,1.32,.43,1.36,.88,2.71,1.35,4.04,.43,1.24,.84,2.5,1.23,3.77,.61,1.52,1.59,1.67,2.93,.45,1.38-1.29,2.78-2.61,4.22-3.95,1.51-1.44,3.02-2.87,4.52-4.31,1.2-1.14,2.48-2.15,3.86-3.05,.81-.54,1.6-.49,2.36,.12,.37,.44,.52,.83,.45,1.17-.08,.34-.26,.67-.54,.99-3.19,3.45-6.33,6.88-9.42,10.29-.76,.74-1.51,1.49-2.24,2.24-1.46,1.2-2.27,2.26-2.42,3.17-.14,.92,.7,2.29,2.51,4.1,.99,.88,2.54,.96,4.63,.24,2.11-.72,4.37-1.8,6.79-3.26,2.43-1.45,4.62-2.87,6.58-4.25,1.35-.99,2.45-1.71,3.29-2.15,2.01-1.05,3.18-1.17,3.53-.33,.34,.84-.21,1.85-1.64,3.05-.76,.52-1.48,1.05-2.15,1.58-3.09,2.2-6.17,4.38-9.24,6.55-1.58,1.06-3.28,1.93-5.11,2.6-2.12,.84-4.15,1.13-6.1,.87-1.96-.25-3.81-1.23-5.56-2.9Z"/><path class="cls-1" d="M230.78,126.68c-.38-.37-.79-.7-1.23-.99-.2-.18-.39-.33-.57-.45-1.2,.44-2.21,1.11-3.02,2-.46,.54-1,1-1.61,1.38-.87,.68-1.85,.97-2.93,.87-.6-.06-1.08-.34-1.47-.87-.07-.06-.12-.22-.12-.51s.04-.49,.12-.63c.16-.16,.31-.31,.45-.45,.9-1.2,1.88-2.29,2.93-3.29,1.14-1.08,1.85-2.17,2.15-3.29,.31-1.14,.1-2.46-.66-3.98-.92-2.15-1.63-4.44-2.15-6.88-.13-.67-.3-1.39-.48-2.15-.3-1.03,.01-1.93,.93-2.69,.7-.48,1.44-.61,2.21-.42,.79,.18,1.35,.62,1.64,1.32,.43,1.36,.88,2.71,1.35,4.04,.43,1.24,.84,2.5,1.23,3.77,.61,1.52,1.59,1.67,2.93,.45,1.38-1.29,2.78-2.61,4.22-3.95,1.51-1.44,3.02-2.87,4.52-4.31,1.2-1.14,2.48-2.15,3.86-3.05,.81-.54,1.6-.49,2.36,.12,.37,.44,.52,.83,.45,1.17-.08,.34-.26,.67-.54,.99-3.19,3.45-6.33,6.88-9.42,10.29-.76,.74-1.51,1.49-2.24,2.24-1.46,1.2-2.27,2.26-2.42,3.17-.14,.92,.7,2.29,2.51,4.1,.99,.88,2.54,.96,4.63,.24,2.11-.72,4.37-1.8,6.79-3.26,2.43-1.45,4.62-2.87,6.58-4.25,1.35-.99,2.45-1.71,3.29-2.15,2.01-1.05,3.18-1.17,3.53-.33,.34,.84-.21,1.85-1.64,3.05-.76,.52-1.48,1.05-2.15,1.58-3.09,2.2-6.17,4.38-9.24,6.55-1.58,1.06-3.28,1.93-5.11,2.6-2.12,.84-4.15,1.13-6.1,.87-1.96-.25-3.81-1.23-5.56-2.9Z"/><path class="cls-1" d="M0,202.38H7.68c2.01,0,3.86,.34,5.56,1.01,1.72,.65,3.21,1.57,4.47,2.76,1.26,1.17,2.24,2.55,2.92,4.16,.7,1.6,1.06,3.36,1.06,5.26s-.36,3.7-1.06,5.32c-.69,1.6-1.66,3-2.92,4.19s-2.75,2.11-4.47,2.76c-1.71,.65-3.56,.98-5.56,.98H0v-26.43Zm7.68,25.01c1.79,0,3.46-.3,4.99-.89,1.53-.59,2.84-1.41,3.93-2.47,1.1-1.05,1.96-2.29,2.58-3.74,.63-1.44,.95-3.01,.95-4.72s-.32-3.3-.95-4.72c-.62-1.43-1.48-2.66-2.58-3.71-1.09-1.07-2.4-1.89-3.93-2.47-1.53-.57-3.2-.86-4.99-.86H1.49v23.58H7.68Z"/><path class="cls-1" d="M36.16,202.38h5.51c1.28,0,2.44,.19,3.5,.56,1.07,.36,1.99,.86,2.75,1.51,.76,.64,1.35,1.41,1.78,2.32,.42,.91,.63,1.92,.63,3.03,0,1.9-.59,3.49-1.75,4.75-1.17,1.27-2.74,2.09-4.7,2.47l7.71,11.79h-1.81l-7.54-11.58h-4.59v11.58h-1.49v-26.43Zm5.48,13.42c1.07,0,2.04-.13,2.92-.42,.9-.3,1.65-.7,2.27-1.22,.63-.51,1.12-1.14,1.46-1.87,.34-.75,.52-1.58,.52-2.49s-.17-1.7-.52-2.44c-.34-.75-.83-1.38-1.46-1.9-.62-.53-1.37-.94-2.27-1.22-.88-.3-1.86-.45-2.92-.45h-3.99v12h3.99Z"/><path class="cls-1" d="M65.66,202.38h1.49v26.43h-1.49v-26.43Z"/><path class="cls-1" d="M83.13,202.38h5.45c1.26,0,2.42,.19,3.5,.56,1.07,.36,1.98,.88,2.72,1.54,.76,.65,1.35,1.45,1.78,2.38,.42,.94,.63,1.95,.63,3.06s-.22,2.13-.63,3.06c-.42,.91-1.02,1.69-1.78,2.35-.75,.65-1.66,1.17-2.72,1.54-1.08,.36-2.24,.53-3.5,.53h-3.96v11.4h-1.49v-26.43Zm5.39,13.6c1.07,0,2.04-.13,2.92-.42,.9-.3,1.65-.7,2.27-1.22,.63-.53,1.12-1.17,1.46-1.93,.34-.75,.52-1.58,.52-2.49s-.17-1.76-.52-2.49c-.34-.75-.83-1.4-1.46-1.93-.62-.55-1.37-.97-2.27-1.25-.88-.3-1.86-.45-2.92-.45h-3.9v12.18h3.9Z"/><path class="cls-1" d="M125.37,203.81h-8.57v-1.43h18.61v1.43h-8.57v25.01h-1.46v-25.01Z"/><path class="cls-1" d="M148.73,202.38h1.49v12.38h15.28v-12.38h1.49v26.43h-1.49v-12.62h-15.28v12.62h-1.49v-26.43Z"/><path class="cls-1" d="M182.99,202.38h12.56v1.43h-11.07v10.6h8.6v1.43h-8.6v11.55h11.27v1.43h-12.76v-26.43Z"/><path class="cls-1" d="M210.01,202.38h5.51c1.28,0,2.44,.19,3.5,.56,1.07,.36,1.99,.86,2.75,1.51,.76,.64,1.35,1.41,1.78,2.32,.42,.91,.63,1.92,.63,3.03,0,1.9-.59,3.49-1.75,4.75-1.17,1.27-2.74,2.09-4.7,2.47l7.71,11.79h-1.81l-7.54-11.58h-4.59v11.58h-1.49v-26.43Zm5.48,13.42c1.07,0,2.04-.13,2.92-.42,.9-.3,1.65-.7,2.27-1.22,.63-.51,1.12-1.14,1.46-1.87,.34-.75,.52-1.58,.52-2.49s-.17-1.7-.52-2.44c-.34-.75-.83-1.38-1.46-1.9-.62-.53-1.37-.94-2.27-1.22-.88-.3-1.86-.45-2.92-.45h-3.99v12h3.99Z"/><path class="cls-1" d="M247.22,201.61h.57l9.61,27.2h-1.61l-2.81-8.05h-11.01l-2.81,8.05h-1.58l9.63-27.2Zm5.28,17.73l-4.99-14.23-5.05,14.23h10.04Z"/><path class="cls-1" d="M271.48,202.38h5.45c1.26,0,2.42,.19,3.5,.56,1.07,.36,1.98,.88,2.72,1.54,.76,.65,1.35,1.45,1.78,2.38,.42,.94,.63,1.95,.63,3.06s-.22,2.13-.63,3.06c-.42,.91-1.02,1.69-1.78,2.35-.75,.65-1.66,1.17-2.72,1.54-1.08,.36-2.24,.53-3.5,.53h-3.96v11.4h-1.49v-26.43Zm5.39,13.6c1.07,0,2.04-.13,2.92-.42,.9-.3,1.65-.7,2.27-1.22,.63-.53,1.12-1.17,1.46-1.93,.34-.75,.52-1.58,.52-2.49s-.17-1.76-.52-2.49c-.34-.75-.83-1.4-1.46-1.93-.62-.55-1.37-.97-2.27-1.25-.88-.3-1.86-.45-2.92-.45h-3.9v12.18h3.9Z"/><path class="cls-1" d="M304.79,218.21l-8-15.83h1.66l7.08,14.08,7.14-14.08h1.63l-8,15.83v10.6h-1.52v-10.6Z"/></svg>